# Blender v2.76 (sub 0) OBJ File: ''
# www.blender.org
mtllib ladderModel.mtl
o Cube
v 1.000000 -1.000000 -0.500000
v 1.000000 -1.000000 1.000000
v -1.000000 -1.000000 1.000000
v -1.000000 -1.000000 -0.500000
v 1.000000 1.000000 -0.499999
v 0.999999 1.000000 1.000001
v -1.000000 1.000000 1.000000
v -1.000000 1.000000 -0.500000
v 1.000000 5.000000 -0.499999
v 0.999999 5.000000 1.000001
v -1.000000 5.000000 -0.500000
v -1.000000 5.000000 1.000000
v 1.000000 7.000000 -0.499999
v 0.999999 7.000000 1.000001
v -1.000000 7.000000 -0.500000
v -1.000000 7.000000 1.000000
v 1.000000 11.000000 -0.499999
v 0.999999 11.000000 1.000001
v -1.000000 11.000000 -0.500000
v -1.000000 11.000000 1.000000
v 1.000000 13.000000 -0.499999
v 0.999999 13.000000 1.000001
v -1.000000 13.000000 -0.500000
v -1.000000 13.000000 1.000000
v 1.000000 17.000000 -0.499999
v 0.999999 17.000000 1.000001
v -1.000000 17.000000 -0.500000
v -1.000000 17.000000 1.000000
v 1.000000 19.000000 -0.499999
v 0.999999 19.000000 1.000001
v -1.000000 19.000000 -0.500000
v -1.000000 19.000000 1.000000
v 1.000000 -1.000000 -6.500000
v -1.000000 -1.000000 -6.500000
v 1.000000 1.000000 -6.500000
v -1.000000 1.000000 -6.500000
v 1.000000 5.000000 -6.500000
v -1.000000 5.000000 -6.500000
v 1.000000 7.000000 -6.500000
v -1.000000 7.000000 -6.500000
v 1.000000 11.000000 -6.500000
v -1.000000 11.000000 -6.500000
v 1.000000 13.000000 -6.500000
v -1.000000 13.000000 -6.500000
v 1.000000 17.000000 -6.500000
v -1.000000 17.000000 -6.500000
v 1.000000 19.000000 -6.500000
v -1.000000 19.000000 -6.500000
v 1.000000 1.000000 -6.500000
v -1.000000 1.000000 -6.500000
v 1.000000 5.000000 -6.500000
v -1.000000 5.000000 -6.500000
v 1.000000 7.000000 -6.500000
v -1.000000 7.000000 -6.500000
v 1.000000 11.000000 -6.500000
v -1.000000 11.000000 -6.500000
v 1.000000 13.000000 -6.500000
v -1.000000 13.000000 -6.500000
v 1.000000 17.000000 -6.500000
v -1.000000 17.000000 -6.500000
v 1.000000 1.000000 -8.000000
v -1.000000 1.000000 -8.000000
v 1.000000 5.000000 -8.000000
v -1.000000 5.000000 -8.000000
v 1.000000 7.000000 -8.000000
v -1.000000 7.000000 -8.000000
v 1.000000 11.000000 -8.000000
v -1.000000 11.000000 -8.000000
v 1.000000 13.000000 -8.000000
v -1.000000 13.000000 -8.000000
v 1.000000 17.000000 -8.000000
v -1.000000 17.000000 -8.000000
v 1.000000 19.000000 -8.000000
v -1.000000 19.000000 -8.000000
v 1.000000 -1.000000 -8.000000
v -1.000000 -1.000000 -8.000000
v 1.000000 23.000000 -0.499999
v 0.999999 23.000000 1.000001
v -1.000000 23.000000 -0.500000
v -1.000000 23.000000 1.000000
v 1.000000 23.000000 -6.500000
v -1.000000 23.000000 -6.500000
v 1.000000 23.000000 -8.000000
v -1.000000 23.000000 -8.000000
v 1.000000 -5.000000 -0.500000
v 1.000000 -5.000000 1.000000
v -1.000000 -5.000000 -0.500000
v -1.000000 -5.000000 1.000000
v 1.000000 -5.000000 -6.500000
v -1.000000 -5.000000 -6.500000
v 1.000000 -5.000000 -8.000000
v -1.000000 -5.000000 -8.000000
v 1.000000 -7.000000 -0.500000
v 1.000000 -7.000000 1.000000
v -1.000000 -7.000000 -0.500000
v -1.000000 -7.000000 1.000000
v 1.000000 -7.000000 -6.500000
v -1.000000 -7.000000 -6.500000
v 1.000000 -7.000000 -8.000000
v -1.000000 -7.000000 -8.000000
v 1.000000 -11.000000 -0.500000
v 1.000000 -11.000000 1.000000
v -1.000000 -11.000000 -0.500000
v -1.000000 -11.000000 1.000000
v 1.000000 -11.000000 -6.500000
v -1.000000 -11.000000 -6.500000
v 1.000000 -11.000000 -8.000000
v -1.000000 -11.000000 -8.000000
v 1.000000 -11.000000 1.000000
v 1.000000 -13.000000 1.000000
v 1.000000 -13.000000 -0.500000
v -1.000000 -13.000000 1.000000
v -1.000000 -13.000000 -0.500000
v 1.000000 -13.000000 -6.500000
v -1.000000 -13.000000 -6.500000
v 1.000000 -13.000000 -8.000000
v -1.000000 -13.000000 -8.000000
v 1.000000 -17.000000 1.000000
v 1.000000 -17.000000 -0.500000
v -1.000000 -17.000000 1.000000
v -1.000000 -17.000000 -0.500000
v 1.000000 -17.000000 -6.500000
v -1.000000 -17.000000 -6.500000
v 1.000000 -17.000000 -8.000000
v -1.000000 -17.000000 -8.000000
vn 0.000000 0.000000 -1.000000
vn 1.000000 0.000000 0.000000
vn -0.000000 -0.000000 1.000000
vn -1.000000 -0.000000 -0.000000
vn 0.000000 1.000000 0.000000
vn 0.000000 -1.000000 0.000000
usemtl Material
s off
f 76//1 75//1 91//1 92//1
f 6//2 5//2 9//2 10//2
f 1//2 5//2 6//2 2//2
f 2//3 6//3 7//3 3//3
f 3//4 7//4 8//4 4//4
f 23//1 27//1 25//1 21//1
f 11//4 12//4 16//4 15//4
f 8//4 7//4 12//4 11//4
f 13//5 53//5 54//5 15//5
f 7//3 6//3 10//3 12//3
f 16//3 14//3 18//3 20//3
f 27//4 31//4 48//4 46//4
f 12//3 10//3 14//3 16//3
f 10//2 9//2 13//2 14//2
f 20//3 18//3 22//3 24//3
f 14//2 13//2 17//2 18//2
f 15//4 16//4 20//4 19//4
f 73//1 71//1 72//1 74//1
f 23//4 24//4 28//4 27//4
f 18//2 17//2 21//2 22//2
f 19//4 20//4 24//4 23//4
f 4//4 8//4 36//4 34//4
f 28//3 26//3 30//3 32//3
f 21//5 57//5 58//5 23//5
f 24//3 22//3 26//3 28//3
f 22//2 21//2 25//2 26//2
f 74//4 48//4 82//4 84//4
f 26//2 25//2 29//2 30//2
f 27//4 28//4 32//4 31//4
f 35//1 33//1 34//1 36//1
f 37//1 38//1 40//1 39//1
f 41//1 42//1 44//1 43//1
f 45//1 46//1 48//1 47//1
f 25//6 27//6 46//6 45//6
f 1//6 4//6 34//6 33//6
f 31//5 29//5 47//5 48//5
f 8//5 5//5 35//5 36//5
f 5//2 1//2 33//2 35//2
f 11//4 15//4 40//4 38//4
f 13//2 9//2 37//2 39//2
f 21//2 17//2 41//2 43//2
f 9//6 11//6 38//6 37//6
f 19//4 23//4 44//4 42//4
f 29//2 25//2 45//2 47//2
f 49//6 50//6 62//6 61//6
f 58//4 60//4 72//4 70//4
f 50//4 52//4 64//4 62//4
f 72//4 60//4 48//4 74//4
f 30//2 29//2 77//2 78//2
f 19//6 56//6 55//6 17//6
f 57//3 59//3 60//3 58//3
f 53//3 55//3 56//3 54//3
f 49//3 51//3 52//3 50//3
f 61//1 62//1 64//1 63//1
f 65//1 66//1 68//1 67//1
f 69//1 70//1 72//1 71//1
f 54//4 56//4 68//4 66//4
f 53//6 54//6 66//6 65//6
f 59//2 57//2 69//2 71//2
f 52//5 51//5 63//5 64//5
f 57//6 58//6 70//6 69//6
f 56//5 55//5 67//5 68//5
f 51//2 49//2 61//2 63//2
f 60//5 59//5 71//5 72//5
f 55//2 53//2 65//2 67//2
f 71//2 73//2 47//2 59//2
f 69//2 57//2 55//2 67//2
f 67//1 68//1 70//1 69//1
f 68//4 56//4 58//4 70//4
f 66//4 64//4 52//4 54//4
f 63//1 64//1 66//1 65//1
f 63//2 65//2 53//2 51//2
f 17//1 13//1 15//1 19//1
f 75//2 33//2 89//2 91//2
f 76//1 62//1 61//1 75//1
f 62//4 76//4 34//4 50//4
f 75//2 61//2 49//2 33//2
f 8//1 11//1 9//1 5//1
f 77//5 79//5 80//5 78//5
f 82//5 81//5 83//5 84//5
f 73//1 74//1 84//1 83//1
f 31//4 32//4 80//4 79//4
f 29//1 31//1 79//1 77//1
f 48//3 47//3 81//3 82//3
f 47//2 73//2 83//2 81//2
f 32//3 30//3 78//3 80//3
f 90//4 92//4 100//4 98//4
f 87//1 85//1 93//1 95//1
f 1//2 2//2 86//2 85//2
f 34//4 76//4 92//4 90//4
f 33//3 34//3 90//3 89//3
f 3//4 4//4 87//4 88//4
f 2//3 3//3 88//3 86//3
f 4//1 1//1 85//1 87//1
f 100//1 99//1 107//1 108//1
f 99//2 97//2 105//2 107//2
f 89//3 90//3 98//3 97//3
f 86//3 88//3 96//3 94//3
f 85//2 86//2 94//2 93//2
f 91//2 89//2 97//2 99//2
f 92//1 91//1 99//1 100//1
f 88//4 87//4 95//4 96//4
f 101//2 109//2 110//2 111//2
f 104//4 103//4 113//4 112//4
f 96//4 95//4 103//4 104//4
f 95//1 93//1 101//1 103//1
f 98//4 100//4 108//4 106//4
f 97//3 98//3 106//3 105//3
f 94//3 96//3 104//3 102//3
f 93//2 94//2 102//2 101//2
f 98//4 95//4 87//4 90//4
f 97//6 93//6 95//6 98//6
f 89//2 85//2 93//2 97//2
f 89//5 90//5 87//5 85//5
f 111//2 110//2 118//2 119//2
f 112//4 113//4 121//4 120//4
f 103//1 101//1 111//1 113//1
f 106//4 108//4 117//4 115//4
f 105//3 106//3 115//3 114//3
f 109//3 104//3 112//3 110//3
f 107//2 105//2 114//2 116//2
f 108//1 107//1 116//1 117//1
f 119//6 118//6 120//6 121//6
f 122//6 123//6 125//6 124//6
f 113//1 111//1 119//1 121//1
f 115//4 117//4 125//4 123//4
f 114//3 115//3 123//3 122//3
f 110//3 112//3 120//3 118//3
f 116//2 114//2 122//2 124//2
f 117//1 116//1 124//1 125//1
f 115//4 113//4 103//4 106//4
f 105//5 106//5 103//5 101//5
f 114//6 111//6 113//6 115//6
f 114//2 105//2 101//2 111//2
