# Blender v2.76 (sub 0) OBJ File: ''
# www.blender.org
mtllib vialModel.mtl
o Grid
v -1.000000 -0.671765 -0.333333
v -0.333333 -0.671765 -1.000000
v -0.086535 0.985591 -0.259604
v -0.259604 0.985591 -0.086535
v -1.000000 -0.671765 0.333333
v -0.259604 0.985591 0.086535
v -0.333333 -0.671765 1.000000
v -0.086535 0.985591 0.259604
v 0.333333 -0.671765 1.000000
v 0.086535 0.985591 0.259604
v 1.000000 -0.671765 0.333333
v 0.259604 0.985591 0.086535
v 1.000000 -0.671765 -0.333333
v 0.259604 0.985591 -0.086535
v 0.333333 -0.671765 -1.000000
v 0.086535 0.985591 -0.259604
v 0.086535 2.005062 0.259604
v 0.259604 2.005062 0.086535
v -0.259604 2.005062 -0.086535
v -0.086535 2.005062 -0.259604
v -0.059301 2.005062 -0.177904
v -0.177904 2.005062 -0.059301
v 0.259604 2.005062 -0.086535
v 0.086535 2.005062 -0.259604
v -0.259604 2.005062 0.086535
v -0.086535 2.005062 0.259604
v 0.059301 2.005062 0.177903
v 0.177904 2.005062 0.059301
v 0.177904 2.005062 -0.059301
v 0.059301 2.005062 -0.177904
v -0.177904 2.005062 0.059301
v -0.059301 2.005062 0.177903
v 1.000000 -1.327862 0.333333
v 0.333333 -1.327862 1.000000
v 0.200314 -1.761318 0.600942
v 0.600942 -1.761318 0.200314
v -0.333333 -1.327862 1.000000
v -1.000000 -1.327862 0.333333
v -0.600942 -1.761318 0.200314
v -0.200314 -1.761318 0.600942
v 0.333333 -1.327862 -1.000000
v 1.000000 -1.327862 -0.333333
v 0.600942 -1.761318 -0.200314
v 0.200314 -1.761318 -0.600942
v -1.000000 -1.327862 -0.333333
v -0.600942 -1.761318 -0.200314
v -0.333333 -1.327862 -1.000000
v -0.200314 -1.761318 -0.600942
vt 0.503481 0.375550
vt 0.723847 0.263274
vt 0.725885 0.234317
vt 0.503043 0.110393
vt 0.613050 0.497197
vt 0.736559 0.275099
vt 0.877497 0.497197
vt 0.765563 0.277178
vt 0.999317 0.388068
vt 0.777414 0.264421
vt 0.999854 0.123427
vt 0.779424 0.235344
vt 0.890741 0.001018
vt 0.766624 0.223548
vt 0.625017 0.000146
vt 0.737492 0.221599
vt 0.751743 0.248576
vt 0.752243 0.249050
vt 0.811617 0.600346
vt 0.708759 0.497488
vt 0.605901 0.497488
vt 0.503043 0.600346
vt 0.503043 0.703204
vt 0.605901 0.806062
vt 0.708759 0.806062
vt 0.811617 0.703204
vt 0.751697 0.250594
vt 0.751770 0.250358
vt 0.751566 0.250432
vt 0.751264 0.250279
vt 0.750793 0.249641
vt 0.751233 0.249072
vt 0.752222 0.250141
vt 0.752670 0.249587
vt 0.751742 0.248976
vt 0.752122 0.249238
vt 0.751242 0.249800
vt 0.751426 0.249239
vt 0.752092 0.250064
vt 0.752325 0.249597
vt 0.377693 0.288228
vt 0.300144 0.374310
vt 0.271768 0.312726
vt 0.311761 0.272755
vt 0.215179 0.378795
vt 0.129657 0.300985
vt 0.190936 0.273430
vt 0.230885 0.312915
vt 0.286536 0.125712
vt 0.372837 0.203191
vt 0.311528 0.232067
vt 0.269829 0.192479
vt 0.126358 0.215012
vt 0.189780 0.233821
vt 0.202368 0.128707
vt 0.227952 0.192315
vt 0.162518 0.000146
vt 0.335636 0.001378
vt 0.501840 0.162445
vt 0.502752 0.336789
vt 0.340778 0.503787
vt 0.165966 0.503787
vt 0.000146 0.340603
vt 0.001237 0.166354
vn -0.651700 0.388200 -0.651700
vn -0.913000 0.407900 0.000000
vn -0.651700 0.388200 0.651700
vn 0.000000 0.407900 0.913000
vn 0.651700 0.388200 0.651700
vn 0.913000 0.407900 0.000000
vn 0.651700 0.388200 -0.651700
vn 0.000000 0.407900 -0.913000
vn 0.707100 -0.000000 0.707100
vn 0.000000 -1.000000 -0.000000
vn 0.000000 1.000000 0.000000
vn 0.707100 0.000000 -0.707100
vn 0.000000 0.000000 -1.000000
vn -1.000000 -0.000000 0.000000
vn 1.000000 0.000000 0.000000
vn 0.000000 -0.000000 1.000000
vn -0.707100 -0.000000 0.707100
vn -0.707100 0.000000 -0.707100
vn 0.534000 -0.655500 0.534000
vn -0.534000 -0.655500 0.534000
vn 0.534000 -0.655500 -0.534000
vn 0.000000 -0.677300 0.735700
vn -0.735700 -0.677300 0.000000
vn 0.735700 -0.677300 0.000000
vn -0.534000 -0.655500 -0.534000
vn 0.000000 -0.677300 -0.735700
usemtl None
s 1
f 1/1/1 4/2/1 3/3/1 2/4/1
f 5/5/2 6/6/2 4/2/2 1/1/2
f 7/7/3 8/8/3 6/6/3 5/5/3
f 9/9/4 10/10/4 8/8/4 7/7/4
f 11/11/5 12/12/5 10/10/5 9/9/5
f 13/13/6 14/14/6 12/12/6 11/11/6
f 15/15/7 16/16/7 14/14/7 13/13/7
f 2/4/8 3/3/8 16/16/8 15/15/8
f 12/12/9 18/17/9 17/18/9 10/10/9
f 11/19/10 9/20/10 7/21/10 5/22/10 1/23/10 2/24/10 15/25/10 13/26/10
f 19/27/11 22/28/11 21/29/11 20/30/11
f 16/16/12 24/31/12 23/32/12 14/14/12
f 3/3/13 20/30/13 24/31/13 16/16/13
f 6/6/14 25/33/14 19/27/14 4/2/14
f 14/14/15 23/32/15 18/17/15 12/12/15
f 10/10/16 17/18/16 26/34/16 8/8/16
f 8/8/17 26/34/17 25/33/17 6/6/17
f 4/2/18 19/27/18 20/30/18 3/3/18
f 18/17/11 28/35/11 27/36/11 17/18/11
f 24/31/11 30/37/11 29/38/11 23/32/11
f 25/33/11 31/39/11 22/28/11 19/27/11
f 23/32/11 29/38/11 28/35/11 18/17/11
f 26/34/11 32/40/11 31/39/11 25/33/11
f 20/30/11 21/29/11 30/37/11 24/31/11
f 17/18/11 27/36/11 32/40/11 26/34/11
f 33/41/19 34/42/19 35/43/19 36/44/19
f 37/45/20 38/46/20 39/47/20 40/48/20
f 41/49/21 42/50/21 43/51/21 44/52/21
f 34/42/22 37/45/22 40/48/22 35/43/22
f 38/46/23 45/53/23 46/54/23 39/47/23
f 42/50/24 33/41/24 36/44/24 43/51/24
f 46/54/25 45/53/25 47/55/25 48/56/25
f 44/52/26 48/56/26 47/55/26 41/49/26
f 43/51/10 36/44/10 35/43/10 40/48/10 39/47/10 46/54/10 48/56/10 44/52/10
f 47/55/13 2/57/13 15/58/13 41/49/13
f 13/59/12 42/50/12 41/49/12 15/58/12
f 11/60/15 33/41/15 42/50/15 13/59/15
f 9/61/9 34/42/9 33/41/9 11/60/9
f 7/62/16 37/45/16 34/42/16 9/61/16
f 37/45/17 7/62/17 5/63/17 38/46/17
f 38/46/14 5/63/14 1/64/14 45/53/14
f 45/53/18 1/64/18 2/57/18 47/55/18
f 8/10/10 6/8/10 4/6/10 3/2/10 16/3/10 14/16/10 12/14/10 10/12/10
