# Blender v2.76 (sub 0) OBJ File: 'potionRoom.blend'
# www.blender.org
mtllib potionRoomver2.mtl
o Cube
v -4.057433 -2.499451 3.731340
v -4.687092 2.503606 3.653058
v -4.557960 -2.496492 3.669112
v -5.186991 2.501568 3.590908
v -3.995761 -2.499324 3.235158
v -4.625405 2.503606 3.156878
v -4.496272 -2.496492 3.172932
v -5.125303 2.501568 3.094728
v -6.658757 -2.500000 8.345882
v -6.658757 2.500000 8.345882
v -6.658757 -2.500000 -10.000000
v -6.658757 2.500000 -10.000000
v 10.000000 -2.500000 8.345882
v 10.000000 2.500000 8.345882
v 10.000000 -2.500000 -10.000000
v 10.000000 2.500000 -10.000000
v 4.013033 1.581805 -9.999999
v 4.403214 1.543375 -10.000000
v 4.778400 1.429564 -10.000001
v 5.124173 1.244744 -10.000000
v 5.427247 0.996019 -10.000001
v 5.675973 0.692945 -10.000000
v 5.860792 0.393580 -9.999999
v 5.974604 -0.028015 -10.000000
v 6.013033 -0.418195 -10.000000
v 5.974604 -0.808376 -10.000000
v 5.860792 -1.183562 -9.999999
v 5.675973 -1.529335 -10.000000
v 5.427247 -1.832409 -10.000001
v 5.124173 -1.987844 -10.000000
v 4.778400 -2.172664 -10.000001
v 4.403214 -2.286475 -10.000000
v 4.013031 -2.324905 -10.000000
v 3.622854 -2.286475 -10.000000
v 3.247665 -2.155626 -9.999999
v 2.901895 -2.042745 -10.000001
v 2.598822 -1.893857 -10.000000
v 2.350093 -1.529334 -9.999999
v 2.165271 -1.183561 -10.000001
v 2.051464 -0.808374 -9.999999
v 2.013037 -0.418193 -10.000000
v 2.051464 -0.028013 -9.999999
v 2.165275 0.347174 -9.999999
v 2.350093 0.692948 -9.999999
v 2.598822 0.996020 -10.000000
v 2.901895 1.244745 -10.000000
v 3.247669 1.429565 -9.999998
v 3.622857 1.543376 -10.000000
v 6.899517 -2.492138 -4.813653
v 6.528339 2.498763 -5.326363
v 6.604019 -2.492887 -5.221827
v 6.232961 2.496379 -5.734368
v 7.304559 -2.492612 -5.106812
v 6.933345 2.498763 -5.619569
v 7.008965 -2.492085 -5.515115
v 6.637967 2.496379 -6.027575
v -2.622364 -2.485131 -4.223282
v -2.622364 2.506628 -4.856356
v -2.622364 -2.492311 -4.726376
v -2.622364 2.504447 -5.360084
v -2.122364 -2.500677 -4.221310
v -2.122364 2.506628 -4.856356
v -2.122364 -2.492496 -4.726353
v -2.122364 2.504447 -5.360084
v 6.074343 -2.491824 6.095058
v 5.755213 2.491652 5.549521
v 5.819975 -2.493719 5.660230
v 5.500378 2.497081 5.113891
v 6.506304 -2.497789 5.843246
v 6.186793 2.491652 5.297055
v 6.252032 -2.501171 5.408579
v 5.931957 2.497081 4.861424
vt 0.124677 0.654736
vt 0.128273 0.641753
vt 0.112992 0.653457
vt 0.115685 0.637457
vt 0.127660 0.653457
vt 0.110519 0.650592
vt 0.127569 0.637483
vt 0.116003 0.643107
vt 0.792967 0.911493
vt 0.795496 0.911493
vt 0.795496 0.914044
vt 0.087560 0.923865
vt 0.087560 0.921336
vt 0.090108 0.921336
vt 0.440912 0.582828
vt 0.442102 0.572045
vt 0.430507 0.559734
vt 0.459254 0.616356
vt 0.462440 0.633546
vt 0.400321 0.538238
vt 0.383661 0.528575
vt 0.455931 0.600583
vt 0.417130 0.549064
vt 0.450561 0.585729
vt 0.452985 0.722511
vt 0.425665 0.701369
vt 0.437145 0.688114
vt 0.371355 0.722396
vt 0.347989 0.724067
vt 0.453972 0.653767
vt 0.392562 0.718430
vt 0.446026 0.672228
vt 0.410828 0.711520
vt 0.321241 0.520351
vt 0.329196 0.528887
vt 0.323034 0.537299
vt 0.367195 0.524822
vt 0.319889 0.547826
vt 0.351877 0.522896
vt 0.317737 0.560616
vt 0.314769 0.574419
vt 0.338777 0.524001
vt 0.313867 0.654152
vt 0.305913 0.651505
vt 0.309470 0.670793
vt 0.311680 0.593929
vt 0.331120 0.707247
vt 0.305913 0.632515
vt 0.307703 0.613273
vt 0.317962 0.689393
vt 0.793263 0.686069
vt 0.825445 0.672187
vt 0.800765 0.688891
vt 0.414155 0.638447
vt 0.295302 0.544074
vt 0.392860 0.601418
vt 0.177309 0.595151
vt 0.190447 0.589846
vt 0.174221 0.578007
vt 0.185987 0.577310
vt 0.174461 0.592732
vt 0.173049 0.581087
vt 0.184672 0.589552
vt 0.190142 0.578007
vt 0.798139 0.911493
vt 0.795590 0.914022
vt 0.798140 0.914022
vt 0.095354 0.923884
vt 0.092825 0.923884
vt 0.092825 0.921336
vt 0.130887 0.577414
vt 0.114917 0.589708
vt 0.114917 0.574753
vt 0.117808 0.572349
vt 0.130489 0.589281
vt 0.113652 0.586459
vt 0.125430 0.577432
vt 0.126491 0.590182
vt 0.785058 0.911493
vt 0.787607 0.911493
vt 0.787607 0.914022
vt 0.090202 0.921336
vt 0.092731 0.921336
vt 0.092731 0.923884
vt 0.448007 0.993181
vt 0.447998 0.993694
vt 0.445744 0.790200
vt 0.448007 0.994080
vt 0.445804 0.789700
vt 0.447979 0.993309
vt 0.445920 0.789955
vt 0.445887 0.790243
vt 0.790324 0.911495
vt 0.792872 0.914026
vt 0.792873 0.911493
vt 0.079556 0.921336
vt 0.079556 0.923891
vt 0.077027 0.923891
vt 0.732376 0.630008
vt 0.769515 0.698012
vt 0.816267 0.707813
vt 0.819617 0.750747
vt 0.799506 0.695910
vt 0.767862 0.668122
vt 0.759320 0.645724
vt 0.811415 0.721305
vt 0.745685 0.656207
vt 0.811023 0.750950
vt 0.809717 0.743565
vt 0.817107 0.725084
vt 0.818071 0.805988
vt 0.792967 0.914044
vt 0.090108 0.923865
vt 0.324461 0.591651
vt 0.795590 0.911493
vt 0.095354 0.921336
vt 0.785047 0.914041
vt 0.090202 0.923884
vt 0.790324 0.914027
vt 0.077027 0.921336
vt 0.784129 0.690366
vt 0.815661 0.751478
vt 0.828665 0.743487
vt 0.814934 0.723460
vt 0.247651 0.784221
vt 0.234442 0.744507
vt 0.248153 0.781199
vt 0.211326 0.788186
vt 0.263898 0.789640
vt 0.257798 0.786729
vt 0.285165 0.879444
vt 0.277459 0.869448
vt 0.228819 0.845568
vt 0.328964 0.921241
vt 0.210081 0.786707
vt 0.186390 0.763097
vt 0.210601 0.783491
vt 0.209468 0.782323
vt 0.226476 0.829141
vt 0.207685 0.800125
vt 0.246515 0.884189
vt 0.308699 0.886950
vt 0.237785 0.839120
vt 0.228677 0.835047
vn -0.123400 0.000000 0.992400
vn -0.984500 -0.125800 -0.122400
vn 0.123400 -0.000000 -0.992400
vn 0.984500 0.125800 0.122400
vn -0.005600 -1.000000 -0.000700
vn -0.004000 1.000000 -0.000500
vn -0.000000 0.000000 1.000000
vn 0.002200 1.000000 -0.000300
vn 1.000000 0.000000 0.000000
vn 0.000000 0.000000 -1.000000
vn -1.000000 0.000000 0.000000
vn -0.810000 -0.000000 0.586400
vn -0.581800 -0.125800 -0.803600
vn 0.810000 0.000000 -0.586400
vn 0.581800 0.125800 0.803600
vn -0.000700 1.000000 0.001800
vn -0.002800 1.000000 -0.003800
vn -0.000000 -0.125800 -0.992100
vn 0.000000 0.125800 0.992100
vn -0.000400 -0.999900 0.014300
vn 0.000000 1.000000 -0.004300
vn -0.863200 0.000000 0.504900
vn -0.500900 -0.125800 -0.856300
vn 0.863200 -0.000000 -0.504900
vn 0.500900 0.125800 0.856300
vn 0.011000 0.999900 -0.010800
vn 0.005400 0.999900 0.009300
vn -0.000000 1.000000 0.000900
vn -0.000200 1.000000 -0.001900
vn 0.002700 1.000000 0.000000
vn -0.000900 1.000000 0.000700
vn 0.007900 0.999900 -0.010100
vn 0.000300 1.000000 -0.004500
vn 0.031000 0.999500 0.007600
vn -0.004300 1.000000 0.000400
vn -0.005800 -1.000000 -0.001000
vn -0.000100 1.000000 -0.001800
vn -0.031000 -0.999400 -0.016200
vn 0.006900 0.999900 -0.011800
vn 0.001000 0.999900 0.016200
vn -0.001000 1.000000 -0.001100
vn 0.004700 0.999800 -0.021500
vn -0.000600 1.000000 0.000200
vn -0.001000 1.000000 -0.000400
vn 0.000000 1.000000 -0.001400
vn 0.000200 1.000000 0.003000
vn 0.000400 1.000000 -0.001700
vn 0.010700 0.999800 -0.014000
vn 0.001900 1.000000 0.001000
vn 0.000000 1.000000 0.003600
vn -0.000700 1.000000 -0.000300
vn 0.005500 1.000000 0.003200
vn 0.005300 1.000000 0.002900
vn -0.002300 1.000000 -0.000300
vn -0.001600 1.000000 0.000000
vn 0.016700 0.999800 -0.014300
vn 0.004300 -1.000000 0.002700
vn -0.000100 -1.000000 -0.000200
vn -0.000800 -1.000000 0.004300
vn 0.000000 -1.000000 -0.000400
vn -0.000500 -1.000000 -0.000800
vn 0.022800 -0.999400 -0.025800
vn 0.000900 -1.000000 0.001600
vn -0.000900 -1.000000 -0.001200
vn -0.003900 -1.000000 0.004300
vn -0.001100 -1.000000 -0.001800
vn -0.000900 -1.000000 -0.000200
vn -0.000600 -1.000000 0.006300
vn 0.004000 -1.000000 0.000600
vn -0.000500 -1.000000 -0.000500
vn -0.000600 -1.000000 -0.000100
vn 0.000400 -1.000000 0.000000
vn 0.000800 -1.000000 -0.000100
vn 0.000000 -1.000000 0.003000
vn 0.001300 -0.999900 -0.013200
vn 0.004000 -1.000000 0.000900
vn 0.001000 -1.000000 0.000000
vn 0.001800 -1.000000 -0.000100
vn 0.001800 -1.000000 0.000200
vn 0.000000 -1.000000 0.001000
vn -0.001000 -1.000000 -0.001400
usemtl None
s off
f 2/1/1 4/2/1 3/3/1
f 8/4/2 7/5/2 3/3/2
f 6/6/3 5/7/3 7/5/3
f 2/1/4 1/8/4 5/7/4
f 3/9/5 7/10/5 5/11/5
f 8/12/6 4/13/6 2/14/6
f 16/15/7 21/16/7 22/17/7
f 18/18/7 16/15/7 17/19/7
f 16/15/7 24/20/7 25/21/7
f 19/22/7 16/15/7 18/18/7
f 16/15/7 23/23/7 24/20/7
f 20/24/7 16/15/7 19/22/7
f 16/15/7 22/17/7 23/23/7
f 21/16/7 16/15/7 20/24/7
f 12/25/7 45/26/7 46/27/7
f 42/28/7 12/25/7 41/29/7
f 12/25/7 48/30/7 17/19/7
f 43/31/7 12/25/7 42/28/7
f 12/25/7 47/32/7 48/30/7
f 44/33/7 12/25/7 43/31/7
f 12/25/7 46/27/7 47/32/7
f 45/26/7 12/25/7 44/33/7
f 16/15/7 12/25/7 17/19/7
f 15/34/7 29/35/7 30/36/7
f 26/37/7 15/34/7 25/21/7
f 31/38/7 15/34/7 30/36/7
f 27/39/7 15/34/7 26/37/7
f 15/34/7 32/40/7 33/41/7
f 28/42/7 15/34/7 27/39/7
f 15/34/7 31/38/7 32/40/7
f 29/35/7 15/34/7 28/42/7
f 15/34/7 16/15/7 25/21/7
f 11/43/7 15/34/7 33/41/7
f 11/43/7 37/44/7 38/45/7
f 34/46/7 11/43/7 33/41/7
f 11/43/7 40/47/7 41/29/7
f 36/48/7 11/43/7 35/49/7
f 11/43/7 39/50/7 40/47/7
f 35/49/7 11/43/7 34/46/7
f 11/43/7 38/45/7 39/50/7
f 37/44/7 11/43/7 36/48/7
f 11/43/7 41/29/7 12/25/7
f 53/51/8 15/52/8 55/53/8
f 10/54/9 11/43/9 12/25/9
f 13/55/10 10/54/10 14/56/10
f 16/15/11 13/55/11 14/56/11
f 50/57/12 52/58/12 51/59/12
f 52/58/13 56/60/13 55/61/13
f 54/62/14 53/63/14 55/61/14
f 54/62/15 50/57/15 49/64/15
f 51/65/16 53/66/16 55/67/16
f 56/68/17 52/69/17 50/70/17
f 60/71/11 59/72/11 57/73/11
f 64/74/18 63/75/18 59/72/18
f 62/76/9 61/77/9 63/75/9
f 62/76/19 58/78/19 57/73/19
f 57/79/20 59/80/20 63/81/20
f 64/82/21 60/83/21 58/84/21
f 66/85/22 68/86/22 67/87/22
f 72/88/23 71/89/23 67/87/23
f 70/90/24 69/91/24 71/89/24
f 70/90/25 66/85/25 65/92/25
f 65/93/26 71/94/26 67/95/26
f 70/96/27 72/97/27 68/98/27
f 71/99/28 49/100/28 5/101/28
f 55/53/29 15/52/29 63/102/29
f 15/52/30 53/51/30 13/103/30
f 53/51/31 71/99/31 13/103/31
f 65/104/32 13/103/32 69/105/32
f 1/106/33 65/104/33 67/107/33
f 57/108/34 5/101/34 61/109/34
f 7/110/35 57/108/35 11/111/35
f 1/8/1 2/1/1 3/3/1
f 4/2/2 8/4/2 3/3/2
f 8/4/3 6/6/3 7/5/3
f 6/6/4 2/1/4 5/7/4
f 1/112/36 3/9/36 5/11/36
f 6/113/6 8/12/6 2/14/6
f 9/114/9 11/43/9 10/54/9
f 9/114/10 10/54/10 13/55/10
f 15/34/11 13/55/11 16/15/11
f 49/64/12 50/57/12 51/59/12
f 51/59/13 52/58/13 55/61/13
f 56/60/14 54/62/14 55/61/14
f 53/63/15 54/62/15 49/64/15
f 49/115/37 53/66/37 51/65/37
f 54/116/17 56/68/17 50/70/17
f 58/78/11 60/71/11 57/73/11
f 60/71/18 64/74/18 59/72/18
f 64/74/9 62/76/9 63/75/9
f 61/77/19 62/76/19 57/73/19
f 61/117/38 57/79/38 63/81/38
f 62/118/21 64/82/21 58/84/21
f 65/92/22 66/85/22 67/87/22
f 68/86/23 72/88/23 67/87/23
f 72/88/24 70/90/24 71/89/24
f 69/91/25 70/90/25 65/92/25
f 69/119/39 71/94/39 65/93/39
f 66/120/27 70/96/27 68/98/27
f 61/109/40 51/121/40 63/102/40
f 51/121/41 61/109/41 49/100/41
f 71/99/42 5/101/42 67/107/42
f 1/106/43 67/107/43 5/101/43
f 61/109/44 5/101/44 49/100/44
f 11/111/45 63/102/45 15/52/45
f 55/53/46 63/102/46 51/121/46
f 63/102/47 11/111/47 59/122/47
f 69/105/48 13/103/48 71/99/48
f 49/100/49 71/99/49 53/51/49
f 9/123/50 13/103/50 65/104/50
f 65/104/51 1/106/51 9/123/51
f 3/124/52 9/123/52 1/106/52
f 57/108/53 7/110/53 5/101/53
f 7/110/54 9/123/54 3/124/54
f 9/123/55 7/110/55 11/111/55
f 59/122/56 11/111/56 57/108/56
f 56/125/57 16/126/57 54/127/57
f 54/127/58 72/128/58 50/129/58
f 52/130/59 62/131/59 64/132/59
f 6/133/60 58/134/60 62/131/60
f 6/133/61 72/128/61 68/135/61
f 72/128/62 14/136/62 70/137/62
f 14/136/63 66/138/63 70/137/63
f 2/139/64 66/138/64 10/140/64
f 58/134/65 12/141/65 60/142/65
f 64/132/66 16/126/66 56/125/66
f 62/131/67 50/129/67 72/128/67
f 50/129/68 62/131/68 52/130/68
f 8/143/69 58/134/69 6/133/69
f 72/128/70 6/133/70 62/131/70
f 6/133/71 68/135/71 2/139/71
f 14/136/72 54/127/72 16/126/72
f 54/127/73 14/136/73 72/128/73
f 10/140/74 66/138/74 14/136/74
f 66/138/75 2/139/75 68/135/75
f 2/139/76 10/140/76 4/144/76
f 12/141/77 8/143/77 10/140/77
f 8/143/78 12/141/78 58/134/78
f 10/140/79 8/143/79 4/144/79
f 16/126/80 64/132/80 12/141/80
f 64/132/81 56/125/81 52/130/81
f 12/141/80 64/132/80 60/142/80
l 1 49
l 5 51
