# Blender v2.76 (sub 0) OBJ File: ''
# www.blender.org
mtllib tree.mtl
o Plane
v 0.000000 5.000000 0.000000
v -0.770826 1.000000 0.780846
v 0.709187 1.000000 0.944433
v -0.788137 1.000000 -0.637705
v 0.837203 1.000000 -0.543670
v 1.000000 1.000000 0.120657
v 0.000000 1.000000 -0.879343
v -1.000000 1.000000 0.120657
v 0.097949 1.000000 1.032545
v -0.032823 0.000000 0.408967
v 0.308123 0.000000 0.081500
v -0.252306 0.000000 -0.215716
v 0.162791 0.000000 -0.236731
v -0.364976 0.000000 0.258053
v -0.032823 1.000000 0.408967
v 0.308123 1.000000 0.081500
v -0.252306 1.000000 -0.215716
v 0.162791 1.000000 -0.236731
v -0.364976 1.000000 0.258053
vt 0.449383 0.052384
vt 0.566100 0.015785
vt 1.000000 0.500000
vt 0.377912 0.101054
vt 0.281249 0.182882
vt 0.000000 0.500000
vt 0.899846 0.029796
vt 0.999898 0.076108
vt 0.786681 0.007071
vt 0.660578 0.000102
vt 0.094396 0.611326
vt 0.084599 0.661461
vt 0.016412 0.661461
vt 0.000102 0.605597
vt 0.038743 0.575491
vt 0.250858 0.661461
vt 0.309054 0.661461
vt 0.309054 0.801479
vt 0.250859 0.801479
vt 0.135682 0.661461
vt 0.201873 0.661461
vt 0.201874 0.801480
vt 0.135682 0.801480
vt 0.084599 0.801480
vt 0.016412 0.801480
vt 0.000000 0.000000
vt 0.028975 0.228082
vt 0.089528 0.157734
vt 0.125327 0.203617
vt 0.188687 0.178421
vt 0.179265 0.128214
vt 0.240213 0.063067
vt 0.180948 0.000102
vt 0.063144 0.033036
vt 0.114310 0.115480
vt 0.000102 0.105131
vn 0.915700 0.238700 0.323300
vn 0.138100 0.250700 0.958200
vn -0.270500 0.234400 0.933700
vn -0.917300 0.238900 0.318400
vn -0.938100 0.226600 -0.262100
vn -0.286900 0.205700 -0.935600
vn 0.364600 0.199900 -0.909400
vn 0.945400 0.229400 -0.231700
vn 0.000000 -1.000000 0.000000
vn -0.050600 0.000000 -0.998700
vn 0.692700 0.000000 0.721200
vn -0.972900 0.000000 -0.231400
vn 0.909600 0.000000 -0.415400
vn -0.413700 0.000000 0.910400
usemtl None
s off
f 3/1/1 6/2/1 1/3/1
f 9/4/2 3/1/2 1/3/2
f 2/5/3 9/4/3 1/3/3
f 8/6/4 2/5/4 1/3/4
f 4/7/5 8/8/5 1/3/5
f 7/9/6 4/7/6 1/3/6
f 5/10/7 7/9/7 1/3/7
f 6/2/8 5/10/8 1/3/8
f 10/11/9 14/12/9 12/13/9 13/14/9 11/15/9
f 13/16/10 12/17/10 17/18/10 18/19/10
f 10/20/11 11/21/11 16/22/11 15/23/11
f 12/13/12 14/12/12 19/24/12 17/25/12
f 11/21/13 13/16/13 18/19/13 16/22/13
f 14/12/14 10/20/14 15/23/14 19/24/14
f 4/26/9 7/27/9 18/28/9 17/29/9
f 8/6/9 4/26/9 17/29/9 19/30/9
f 8/6/9 19/30/9 15/31/9 9/32/9 2/5/9
f 3/33/9 9/32/9 15/31/9
f 6/34/9 3/33/9 15/31/9 16/35/9
f 5/36/9 6/34/9 16/35/9 18/28/9
f 7/27/9 5/36/9 18/28/9
