# Blender v2.76 (sub 0) OBJ File: 'office.blend'
# www.blender.org
mtllib bookModel.mtl
o Cube.009
v -0.264375 -0.042000 0.336000
v -0.264375 -0.042000 -0.336000
v -0.264375 0.042000 0.336000
v -0.264375 0.042000 -0.336000
v -0.264375 0.023100 0.336000
v -0.264375 -0.023100 -0.336000
v 0.218625 0.042000 -0.336000
v 0.239625 -0.028350 -0.336000
v 0.239625 -0.028350 0.336000
v 0.218625 -0.042000 0.336000
v -0.264375 -0.023100 0.336000
v -0.264375 0.023100 -0.336000
v 0.239625 0.028350 -0.336000
v 0.218625 -0.042000 -0.336000
v 0.239625 0.028350 0.336000
v 0.218625 0.042000 0.336000
v 0.218625 -0.023100 -0.336000
v 0.218625 0.023100 -0.336000
v 0.218625 -0.023100 0.336000
v 0.218625 0.023100 0.336000
v -0.255975 -0.023100 -0.327600
v -0.255975 0.023100 -0.327600
v 0.218625 -0.023100 -0.327600
v 0.218625 0.023100 -0.327600
v -0.255975 0.023100 0.327600
v -0.255975 -0.023100 0.327600
v 0.218625 -0.023100 0.327600
v 0.218625 0.023100 0.327600
vt 0.219471 0.041250
vt 0.040429 0.216680
vt 0.000957 0.176396
vt 0.180000 0.000966
vt 0.211545 0.820282
vt 0.171272 0.859767
vt 0.003098 0.688236
vt 0.043371 0.648751
vt 0.445137 0.642657
vt 0.696402 0.642657
vt 0.696402 0.684808
vt 0.445137 0.684808
vt 0.706871 0.626953
vt 0.706871 0.488757
vt 0.710012 0.488757
vt 0.710012 0.626953
vt 0.390534 0.644797
vt 0.430018 0.685069
vt 0.251029 0.860555
vt 0.222360 0.473265
vt 0.262632 0.433781
vt 0.430806 0.605312
vt 0.208550 0.388263
vt 0.168265 0.427735
vt 0.000144 0.256152
vt 0.696402 0.473053
vt 0.445137 0.473053
vt 0.445137 0.430902
vt 0.696402 0.430902
vt 0.259756 0.001778
vt 0.427877 0.173361
vt 0.387592 0.212832
vt 0.434668 0.626953
vt 0.434668 0.488757
vt 1.000000 1.000000
vt 0.656250 1.000000
vt 0.656250 0.875000
vt 1.000000 0.875000
vt 0.265547 0.430902
vt 0.429902 0.598506
vt 0.265632 0.001889
vt 0.430832 0.170490
vt 0.000000 0.875000
vt 0.312500 0.875000
vt 0.312500 1.000000
vt 0.000000 1.000000
vt 0.431527 0.626953
vt 0.431527 0.488757
vt 0.165349 0.430613
vt 0.001046 0.262959
vt 0.165396 0.859658
vt 0.000144 0.691108
vt 0.430807 0.690344
vt 0.256368 0.861371
vt 0.000173 0.171115
vt 0.174662 0.000144
vt 0.710444 0.630045
vt 0.710444 0.485665
vt 0.431095 0.485665
vt 0.431095 0.630045
vt 0.531250 0.546875
vt 0.531250 -0.000000
vt 1.000000 0.000000
vt 1.000000 0.546875
vn -1.000000 0.000000 0.000000
vn 0.000000 0.000000 1.000000
vn 0.545000 0.838400 0.000000
vn 0.000000 0.000000 -1.000000
vn 1.000000 0.000000 0.000000
vn 0.545000 -0.838400 0.000000
vn 0.000000 -1.000000 0.000000
vn 0.000000 1.000000 0.000000
usemtl None
s off
f 2/1/1 1/2/1 11/3/1 6/4/1
f 3/5/2 5/6/2 20/7/2 16/8/2
f 15/9/3 13/10/3 7/11/3 16/12/3
f 18/13/1 17/14/1 23/15/1 24/16/1
f 3/5/1 4/17/1 12/18/1 5/19/1
f 4/17/4 7/20/4 18/21/4 12/22/4
f 1/2/2 10/23/2 19/24/2 11/25/2
f 8/26/5 13/10/5 15/9/5 9/27/5
f 10/28/6 14/29/6 8/26/6 9/27/6
f 2/1/4 6/30/4 17/31/4 14/32/4
f 17/14/4 18/13/4 13/10/4 8/26/4
f 9/27/2 15/9/2 20/33/2 19/34/2
f 23/35/4 21/36/4 22/37/4 24/38/4
f 12/22/7 18/21/7 24/39/7 22/40/7
f 17/31/8 6/30/8 21/41/8 23/42/8
f 28/43/2 25/44/2 26/45/2 27/46/2
f 19/34/1 20/33/1 28/47/1 27/48/1
f 11/25/8 19/24/8 27/49/8 26/50/8
f 20/7/7 5/6/7 25/51/7 28/52/7
f 21/36/1 26/45/1 25/44/1 22/37/1
f 5/19/7 12/18/7 22/53/7 25/54/7
f 11/3/8 26/55/8 21/56/8 6/4/8
f 7/11/4 13/10/4 18/57/4
f 14/29/4 17/58/4 8/26/4
f 14/32/7 10/23/7 1/2/7 2/1/7
f 10/28/2 9/27/2 19/59/2
f 16/12/2 20/60/2 15/9/2
f 16/61/8 7/62/8 4/63/8 3/64/8
