# Blender v2.76 (sub 0) OBJ File: ''
# www.blender.org
mtllib fryingPan.mtl
o Cylinder_Cylinder.003
v 1.112988 0.032518 -0.150000
v 3.405807 0.542186 -0.150000
v 1.098415 -0.000699 -0.147118
v 3.412157 0.513620 -0.147118
v 1.086398 -0.032196 -0.138582
v 3.418262 0.486151 -0.138582
v 1.075500 -0.061184 -0.124720
v 3.423890 0.460836 -0.124720
v 1.067434 -0.086263 -0.106066
v 3.428822 0.438647 -0.106066
v 1.061540 -0.106683 -0.083336
v 3.432870 0.420437 -0.083336
v 1.057533 -0.121773 -0.057403
v 3.435878 0.406906 -0.057403
v 1.055656 -0.130935 -0.029264
v 3.437730 0.398574 -0.029264
v 1.057972 -0.133373 -0.000000
v 3.438355 0.395760 -0.000000
v 1.055656 -0.130935 0.029264
v 3.437730 0.398574 0.029264
v 1.057533 -0.121773 0.057402
v 3.435878 0.406906 0.057402
v 1.061540 -0.106683 0.083336
v 3.432870 0.420437 0.083336
v 1.067434 -0.086263 0.106066
v 3.428822 0.438647 0.106066
v 1.075500 -0.061184 0.124720
v 3.423890 0.460836 0.124720
v 1.086398 -0.032196 0.138582
v 3.418262 0.486151 0.138582
v 1.098415 -0.000699 0.147118
v 3.412157 0.513620 0.147118
v 1.112988 0.032518 0.150000
v 3.405807 0.542186 0.150000
v 1.127453 0.065711 0.147118
v 3.399457 0.570753 0.147118
v 1.143191 0.098036 0.138582
v 3.393351 0.598221 0.138582
v 1.154602 0.127138 0.124720
v 3.387723 0.623536 0.124720
v 1.169889 0.153822 0.106066
v 3.382791 0.645725 0.106066
v 1.180097 0.175200 0.083335
v 3.378743 0.663935 0.083335
v 1.191166 0.191861 0.057402
v 3.375735 0.677466 0.057402
v 1.196898 0.201879 0.029263
v 3.373883 0.685799 0.029263
v 1.202147 0.205998 -0.000000
v 3.373258 0.688612 -0.000000
v 1.196898 0.201879 -0.029264
v 3.373883 0.685799 -0.029264
v 1.191166 0.191861 -0.057403
v 3.375735 0.677466 -0.057403
v 1.180097 0.175200 -0.083336
v 3.378743 0.663935 -0.083336
v 1.169889 0.153821 -0.106066
v 3.382791 0.645725 -0.106066
v 1.154602 0.127138 -0.124721
v 3.387723 0.623536 -0.124721
v 1.143192 0.098036 -0.138582
v 3.393351 0.598221 -0.138582
v 1.127453 0.065711 -0.147118
v 3.399457 0.570752 -0.147118
v -0.000000 -0.177429 -0.900000
v -0.000000 0.270942 -1.106201
v 0.175581 -0.177429 -0.882707
v 0.215809 0.270942 -1.084945
v 0.344415 -0.177429 -0.831492
v 0.423325 0.270942 -1.021996
v 0.500013 -0.177429 -0.748323
v 0.614572 0.270942 -0.919772
v 0.636396 -0.177429 -0.636396
v 0.782202 0.270942 -0.782202
v 0.748323 -0.177429 -0.500013
v 0.919772 0.270942 -0.614572
v 0.831491 -0.177429 -0.344415
v 1.021996 0.270942 -0.423325
v 0.882707 -0.177429 -0.175581
v 1.084946 0.270942 -0.215809
v 0.900000 -0.177429 -0.000000
v 1.106201 0.270942 -0.000000
v 0.882707 -0.177429 0.175581
v 1.084946 0.270942 0.215809
v 0.831491 -0.177429 0.344415
v 1.021996 0.270942 0.423325
v 0.748323 -0.177429 0.500013
v 0.919772 0.270942 0.614572
v 0.636396 -0.177429 0.636396
v 0.782202 0.270942 0.782202
v 0.500013 -0.177429 0.748323
v 0.614572 0.270942 0.919773
v 0.344415 -0.177429 0.831492
v 0.423324 0.270942 1.021996
v 0.175581 -0.177429 0.882707
v 0.215809 0.270942 1.084946
v -0.000000 -0.177429 0.900000
v -0.000000 0.270942 1.106201
v -0.175582 -0.177429 0.882707
v -0.215810 0.270942 1.084946
v -0.344416 -0.177429 0.831491
v -0.423326 0.270942 1.021996
v -0.500014 -0.177429 0.748322
v -0.614573 0.270942 0.919772
v -0.636397 -0.177429 0.636396
v -0.782203 0.270942 0.782202
v -0.748323 -0.177430 0.500013
v -0.919773 0.270942 0.614572
v -0.831492 -0.177429 0.344414
v -1.021997 0.270942 0.423324
v -0.882707 -0.177429 0.175581
v -1.084946 0.270942 0.215808
v -0.900000 -0.177429 -0.000001
v -1.106201 0.270942 -0.000001
v -0.882707 -0.177429 -0.175582
v -1.084946 0.270942 -0.215810
v -0.831491 -0.177429 -0.344416
v -1.021996 0.270942 -0.423326
v -0.748322 -0.177429 -0.500014
v -0.919772 0.270942 -0.614573
v -0.636396 -0.177429 -0.636397
v -0.782202 0.270942 -0.782203
v -0.500012 -0.177429 -0.748323
v -0.614571 0.270942 -0.919773
v -0.344414 -0.177429 -0.831492
v -0.423323 0.270942 -1.021997
v -0.175580 -0.177429 -0.882707
v -0.215807 0.270942 -1.084946
v -0.000000 -0.270942 -1.000000
v -0.000000 0.270942 -1.229112
v 0.195090 -0.270942 -0.980785
v 0.239788 0.270942 -1.205495
v 0.382683 -0.270942 -0.923880
v 0.470361 0.270942 -1.135551
v 0.555570 -0.270942 -0.831470
v 0.682858 0.270942 -1.021969
v 0.707107 -0.270942 -0.707107
v 0.869113 0.270942 -0.869113
v 0.831470 -0.270942 -0.555570
v 1.021969 0.270942 -0.682858
v 0.923880 -0.270942 -0.382683
v 1.135551 0.270942 -0.470361
v 0.980785 -0.270942 -0.195090
v 1.205495 0.270942 -0.239788
v 1.000000 -0.270942 -0.000000
v 1.229112 0.270942 -0.000000
v 0.980785 -0.270942 0.195090
v 1.205495 0.270942 0.239788
v 0.923880 -0.270942 0.382683
v 1.135551 0.270942 0.470361
v 0.831470 -0.270942 0.555570
v 1.021969 0.270942 0.682858
v 0.707107 -0.270942 0.707107
v 0.869113 0.270942 0.869114
v 0.555570 -0.270942 0.831470
v 0.682858 0.270942 1.021970
v 0.382683 -0.270942 0.923880
v 0.470361 0.270942 1.135552
v 0.195090 -0.270942 0.980785
v 0.239787 0.270942 1.205495
v -0.000000 -0.270942 1.000000
v -0.000000 0.270942 1.229112
v -0.195091 -0.270942 0.980785
v -0.239789 0.270942 1.205495
v -0.382684 -0.270942 0.923879
v -0.470361 0.270942 1.135551
v -0.555571 -0.270942 0.831469
v -0.682859 0.270942 1.021969
v -0.707108 -0.270942 0.707106
v -0.869114 0.270942 0.869113
v -0.831470 -0.270942 0.555570
v -1.021970 0.270942 0.682857
v -0.923880 -0.270942 0.382683
v -1.135552 0.270942 0.470360
v -0.980786 -0.270942 0.195089
v -1.205495 0.270942 0.239787
v -1.000000 -0.270942 -0.000001
v -1.229112 0.270942 -0.000001
v -0.980785 -0.270942 -0.195091
v -1.205495 0.270942 -0.239789
v -0.923879 -0.270942 -0.382684
v -1.135551 0.270942 -0.470362
v -0.831469 -0.270942 -0.555571
v -1.021969 0.270942 -0.682859
v -0.707106 -0.270942 -0.707108
v -0.869112 0.270942 -0.869115
v -0.555569 -0.270942 -0.831470
v -0.682857 0.270942 -1.021970
v -0.382682 -0.270942 -0.923880
v -0.470359 0.270942 -1.135552
v -0.195089 -0.270942 -0.980786
v -0.239786 0.270942 -1.205495
vn 0.021300 -0.095700 -0.995200
vn 0.063000 -0.283400 -0.956900
vn 0.102300 -0.460200 -0.881900
vn 0.137700 -0.619300 -0.773000
vn 0.167700 -0.754600 -0.634400
vn 0.191400 -0.860900 -0.471400
vn 0.207600 -0.934100 -0.290300
vn 0.215900 -0.971500 -0.098000
vn 0.215900 -0.971500 0.098000
vn 0.207600 -0.934100 0.290300
vn 0.191400 -0.860900 0.471400
vn 0.167700 -0.754600 0.634400
vn 0.137700 -0.619300 0.773000
vn 0.102300 -0.460200 0.881900
vn 0.063000 -0.283400 0.956900
vn 0.021300 -0.095700 0.995200
vn -0.021300 0.095700 0.995200
vn -0.063000 0.283400 0.956900
vn -0.102300 0.460200 0.881900
vn -0.137700 0.619300 0.773000
vn -0.167700 0.754600 0.634400
vn -0.191400 0.860900 0.471400
vn -0.207600 0.934100 0.290300
vn -0.215900 0.971500 0.098000
vn -0.215900 0.971500 -0.098000
vn -0.207600 0.934100 -0.290300
vn -0.191400 0.860900 -0.471400
vn -0.167700 0.754600 -0.634400
vn -0.137700 0.619300 -0.773000
vn -0.102300 0.460200 -0.881900
vn 0.976200 0.217000 0.000000
vn -0.021300 0.095700 -0.995200
vn -0.063000 0.283400 -0.956900
vn -0.089100 0.416200 0.904900
vn -0.264000 0.416200 0.870100
vn -0.428600 0.416200 0.801900
vn -0.576800 0.416200 0.702900
vn -0.702900 0.416200 0.576800
vn -0.801900 0.416200 0.428600
vn -0.870100 0.416200 0.264000
vn -0.870100 0.416200 -0.264000
vn -0.801900 0.416200 -0.428600
vn -0.702900 0.416200 -0.576800
vn -0.576800 0.416200 -0.702900
vn -0.428600 0.416200 -0.801900
vn -0.264000 0.416200 -0.870100
vn -0.089100 0.416200 -0.904900
vn 0.089100 0.416200 -0.904900
vn 0.264000 0.416200 -0.870100
vn 0.428600 0.416200 -0.801900
vn 0.576800 0.416200 -0.702900
vn 0.702900 0.416200 -0.576800
vn 0.801900 0.416200 -0.428600
vn 0.870100 0.416200 -0.264000
vn 0.904900 0.416200 -0.089100
vn 0.904900 0.416200 0.089100
vn 0.870100 0.416200 0.264000
vn 0.801900 0.416200 0.428600
vn 0.702900 0.416200 0.576800
vn 0.576800 0.416200 0.702900
vn 0.428600 0.416200 0.801900
vn 0.089100 0.416200 0.904900
vn 0.264000 0.416200 0.870100
vn -0.000000 1.000000 0.000000
vn 0.090300 -0.387800 -0.917300
vn 0.267600 -0.387800 -0.882000
vn 0.434500 -0.387800 -0.812900
vn 0.584700 -0.387800 -0.712500
vn 0.712500 -0.387800 -0.584700
vn 0.812900 -0.387800 -0.434500
vn 0.882000 -0.387800 0.267600
vn 0.812900 -0.387800 0.434500
vn 0.712500 -0.387800 0.584700
vn 0.584700 -0.387800 0.712500
vn 0.434500 -0.387800 0.812900
vn 0.267600 -0.387800 0.882000
vn 0.090300 -0.387800 0.917300
vn -0.090300 -0.387800 0.917300
vn -0.267600 -0.387800 0.882000
vn -0.434500 -0.387800 0.812900
vn -0.584700 -0.387800 0.712500
vn -0.712500 -0.387800 0.584700
vn -0.812900 -0.387800 0.434500
vn -0.882000 -0.387800 0.267600
vn -0.917300 -0.387800 0.090300
vn -0.917300 -0.387800 -0.090300
vn -0.882000 -0.387800 -0.267600
vn -0.812900 -0.387800 -0.434500
vn -0.712500 -0.387800 -0.584700
vn -0.584700 -0.387800 -0.712500
vn -0.434500 -0.387800 -0.812900
vn -0.090300 -0.387800 -0.917300
vn -0.267600 -0.387800 -0.882000
vn 0.000000 -1.000000 0.000000
vn 0.882000 -0.387800 -0.267600
vn -0.904900 0.416200 0.089100
vn -0.904900 0.416200 -0.089100
vn 0.918000 -0.386400 -0.089400
vn 0.917100 -0.387700 -0.092800
vn 0.918100 -0.387600 -0.083300
vn 0.918000 -0.386400 0.089400
vn 0.917100 -0.387700 0.092800
vn 0.918100 -0.387600 0.083300
usemtl None
s off
f 1//1 2//1 4//1 3//1
f 3//2 4//2 6//2 5//2
f 5//3 6//3 8//3 7//3
f 7//4 8//4 10//4 9//4
f 9//5 10//5 12//5 11//5
f 11//6 12//6 14//6 13//6
f 13//7 14//7 16//7 15//7
f 15//8 16//8 18//8 17//8
f 17//9 18//9 20//9 19//9
f 19//10 20//10 22//10 21//10
f 21//11 22//11 24//11 23//11
f 23//12 24//12 26//12 25//12
f 25//13 26//13 28//13 27//13
f 27//14 28//14 30//14 29//14
f 29//15 30//15 32//15 31//15
f 31//16 32//16 34//16 33//16
f 33//17 34//17 36//17 35//17
f 35//18 36//18 38//18 37//18
f 37//19 38//19 40//19 39//19
f 39//20 40//20 42//20 41//20
f 41//21 42//21 44//21 43//21
f 43//22 44//22 46//22 45//22
f 45//23 46//23 48//23 47//23
f 47//24 48//24 50//24 49//24
f 49//25 50//25 52//25 51//25
f 51//26 52//26 54//26 53//26
f 53//27 54//27 56//27 55//27
f 55//28 56//28 58//28 57//28
f 57//29 58//29 60//29 59//29
f 59//30 60//30 62//30 61//30
f 4//31 2//31 64//31 62//31 60//31 58//31 56//31 54//31 52//31 50//31 48//31 46//31 44//31 42//31 40//31 38//31 36//31 34//31 32//31 30//31 28//31 26//31 24//31 22//31 20//31 18//31 16//31 14//31 12//31 10//31 8//31 6//31
f 63//32 64//32 2//32 1//32
f 61//33 62//33 64//33 63//33
f 65//34 67//34 68//34 66//34
f 67//35 69//35 70//35 68//35
f 69//36 71//36 72//36 70//36
f 71//37 73//37 74//37 72//37
f 73//38 75//38 76//38 74//38
f 75//39 77//39 78//39 76//39
f 77//40 79//40 80//40 78//40
f 83//41 85//41 86//41 84//41
f 85//42 87//42 88//42 86//42
f 87//43 89//43 90//43 88//43
f 89//44 91//44 92//44 90//44
f 91//45 93//45 94//45 92//45
f 93//46 95//46 96//46 94//46
f 95//47 97//47 98//47 96//47
f 97//48 99//48 100//48 98//48
f 99//49 101//49 102//49 100//49
f 101//50 103//50 104//50 102//50
f 103//51 105//51 106//51 104//51
f 105//52 107//52 108//52 106//52
f 107//53 109//53 110//53 108//53
f 109//54 111//54 112//54 110//54
f 111//55 113//55 114//55 112//55
f 113//56 115//56 116//56 114//56
f 115//57 117//57 118//57 116//57
f 117//58 119//58 120//58 118//58
f 119//59 121//59 122//59 120//59
f 121//60 123//60 124//60 122//60
f 123//61 125//61 126//61 124//61
f 127//62 65//62 66//62 128//62
f 125//63 127//63 128//63 126//63
f 65//64 127//64 125//64 123//64 121//64 119//64 117//64 115//64 113//64 111//64 109//64 107//64 105//64 103//64 101//64 99//64 97//64 95//64 93//64 91//64 89//64 87//64 85//64 83//64 81//64 79//64 77//64 75//64 73//64 71//64 69//64 67//64
f 129//65 130//65 132//65 131//65
f 131//66 132//66 134//66 133//66
f 133//67 134//67 136//67 135//67
f 135//68 136//68 138//68 137//68
f 137//69 138//69 140//69 139//69
f 139//70 140//70 142//70 141//70
f 147//71 148//71 150//71 149//71
f 149//72 150//72 152//72 151//72
f 151//73 152//73 154//73 153//73
f 153//74 154//74 156//74 155//74
f 155//75 156//75 158//75 157//75
f 157//76 158//76 160//76 159//76
f 159//77 160//77 162//77 161//77
f 161//78 162//78 164//78 163//78
f 163//79 164//79 166//79 165//79
f 165//80 166//80 168//80 167//80
f 167//81 168//81 170//81 169//81
f 169//82 170//82 172//82 171//82
f 171//83 172//83 174//83 173//83
f 173//84 174//84 176//84 175//84
f 175//85 176//85 178//85 177//85
f 177//86 178//86 180//86 179//86
f 179//87 180//87 182//87 181//87
f 181//88 182//88 184//88 183//88
f 183//89 184//89 186//89 185//89
f 185//90 186//90 188//90 187//90
f 187//91 188//91 190//91 189//91
f 191//92 192//92 130//92 129//92
f 189//93 190//93 192//93 191//93
f 76//64 78//64 142//64 140//64
f 78//64 80//64 144//64 142//64
f 80//64 82//64 146//64 144//64
f 82//64 84//64 148//64 146//64
f 84//64 86//64 150//64 148//64
f 86//64 88//64 152//64 150//64
f 88//64 90//64 154//64 152//64
f 90//64 92//64 156//64 154//64
f 92//64 94//64 158//64 156//64
f 94//64 96//64 160//64 158//64
f 96//64 98//64 162//64 160//64
f 98//64 100//64 164//64 162//64
f 100//64 102//64 166//64 164//64
f 102//64 104//64 168//64 166//64
f 104//64 106//64 170//64 168//64
f 106//64 108//64 172//64 170//64
f 108//64 110//64 174//64 172//64
f 110//64 112//64 176//64 174//64
f 112//64 114//64 178//64 176//64
f 114//64 116//64 180//64 178//64
f 116//64 118//64 182//64 180//64
f 118//64 120//64 184//64 182//64
f 120//64 122//64 186//64 184//64
f 122//64 124//64 188//64 186//64
f 124//64 126//64 190//64 188//64
f 126//64 128//64 192//64 190//64
f 128//64 66//64 130//64 192//64
f 66//64 68//64 132//64 130//64
f 68//64 70//64 134//64 132//64
f 70//64 72//64 136//64 134//64
f 72//64 74//64 138//64 136//64
f 74//64 76//64 140//64 138//64
f 129//94 131//94 133//94 135//94 137//94 139//94 141//94 143//94 145//94 147//94 149//94 151//94 153//94 155//94 157//94 159//94 161//94 163//94 165//94 167//94 169//94 171//94 173//94 175//94 177//94 179//94 181//94 183//94 185//94 187//94 189//94 191//94
f 141//95 142//95 144//95 143//95
f 79//96 81//96 82//96 80//96
f 81//97 83//97 84//97 82//97
f 1//98 3//98 5//98 7//98 9//98 11//98 13//98 15//98 17//98 145//98 143//98
f 49//99 51//99 53//99 55//99 57//99 59//99 61//99 63//99 1//99 144//99 146//99
f 144//100 1//100 143//100
f 17//101 19//101 21//101 23//101 25//101 27//101 29//101 31//101 33//101 147//101 145//101
f 33//102 35//102 37//102 39//102 41//102 43//102 45//102 47//102 49//102 146//102 148//102
f 148//103 147//103 33//103
