# Blender v2.76 (sub 0) OBJ File: ''
# www.blender.org
mtllib LogModel.mtl
o Grid
v 5.293164 0.305766 1.223064
v 5.293164 -0.305765 1.223064
v 5.293164 0.917298 0.917298
v 5.293164 -0.917298 0.917298
v 5.293164 1.223064 0.305766
v 5.293164 -1.223063 0.305766
v 5.293164 -0.253036 -1.012144
v 5.293164 0.253036 -1.012144
v 5.293164 1.223064 -0.305766
v 5.293164 -0.759107 -0.759108
v 5.293164 0.759109 -0.759108
v 5.293164 -1.012143 -0.253036
v 5.293164 1.012144 -0.253036
v 5.293164 -1.012143 0.253036
v 5.293164 1.012144 0.253036
v 5.293164 -0.759107 0.759108
v 5.293164 -1.223063 -0.305766
v 5.293164 0.759109 0.759108
v 5.293164 -0.253036 1.012144
v 5.293164 0.253036 1.012144
v -5.293165 0.255255 1.021019
v -5.293165 -0.255255 1.021019
v -5.293165 0.765764 0.765764
v -5.293165 -0.765765 0.765764
v -5.293165 1.021019 0.255255
v -5.293165 -1.021020 0.255255
v -5.293165 1.021019 -0.255255
v -5.293165 -1.021020 -0.255255
v -5.293165 0.765764 -0.765764
v 5.293164 0.917298 -0.917298
v -5.293165 -0.765765 -0.765764
v -5.293165 0.255255 -1.021019
v -5.293165 -0.255255 -1.021019
v -5.293165 -0.305766 -1.223064
v -5.293165 0.305766 -1.223064
v 5.293164 -0.917298 -0.917298
v -5.293165 -0.917298 -0.917298
v -5.293165 0.917298 -0.917298
v -5.293165 -1.223065 -0.305766
v -5.293165 1.223064 -0.305766
v -5.293165 -1.223065 0.305766
v 5.293164 0.305766 -1.223064
v -5.293165 1.223064 0.305766
v 5.293164 -0.305765 -1.223064
v -5.293165 -0.917298 0.917298
v -5.293165 0.917298 0.917298
v -5.293165 -0.305766 1.223064
v -5.293165 0.305766 1.223064
vt 0.000000 0.750000
vt 0.000000 0.812500
vt 0.062500 0.375000
vt 0.062500 0.437500
vt 0.000000 0.375000
vt -0.000000 0.562500
vt 0.062500 0.562500
vt 0.062500 0.500000
vt 0.000000 0.500000
vt 0.062500 0.750000
vt 0.000000 0.937500
vt 0.062500 0.937500
vt 0.062500 1.000000
vt 0.000000 0.437500
vt 0.000000 0.875000
vt 0.000000 0.625000
vt 0.846902 0.942272
vt 0.870787 0.990043
vt 0.870787 1.037814
vt 0.846902 1.085585
vt 0.799131 1.109471
vt 0.751360 1.109471
vt 0.703589 1.085585
vt 0.679703 1.037814
vt 0.679703 0.990043
vt 0.703589 0.942272
vt 0.751360 0.918387
vt 0.799131 0.918387
vt 0.017027 0.885951
vt 0.026881 0.881024
vt 0.027695 0.884280
vt 0.019469 0.888393
vt 0.026881 0.920442
vt 0.017027 0.915515
vt 0.019469 0.913073
vt 0.027695 0.917187
vt 0.036736 0.920442
vt 0.035922 0.917187
vt 0.036736 0.881024
vt 0.035922 0.884280
vt 0.012099 0.895806
vt 0.015355 0.896620
vt 0.046591 0.885951
vt 0.051518 0.895806
vt 0.048262 0.896620
vt 0.044149 0.888393
vt 0.051518 0.905661
vt 0.048262 0.904847
vt 0.046590 0.915515
vt 0.044149 0.913073
vt 0.012099 0.905661
vt 0.015355 0.904847
vt 0.447272 0.989834
vt 0.471367 0.941644
vt 0.519556 0.917549
vt 0.567746 0.917549
vt 0.615936 0.941644
vt 0.640031 0.989834
vt 0.640031 1.038024
vt 0.615936 1.086214
vt 0.567746 1.110309
vt 0.519556 1.110309
vt 0.471367 1.086214
vt 0.447272 1.038024
vt 0.312500 0.000000
vt 0.312500 1.000000
vt -0.000000 1.000000
vt 0.000000 -0.000000
vn 1.000000 0.000000 0.000000
vn -1.000000 0.000000 0.000000
vn 0.000000 -0.447200 0.894400
vn 0.000000 -0.894400 -0.447200
vn 0.000000 0.447200 -0.894400
vn 0.000000 -1.000000 0.000000
vn 0.000000 0.894400 0.447200
vn -0.000000 0.000000 -1.000000
vn 0.000000 0.000000 1.000000
vn 0.000000 1.000000 0.000000
vn 0.000000 -0.894400 0.447200
vn 0.000000 0.894400 -0.447200
vn 0.000000 -0.447200 -0.894400
vn 0.000000 0.447200 0.894400
usemtl None
s off
f 4/1/1 16/2/1 19/2/1 2/2/1
f 36/3/1 10/4/1 12/5/1 17/5/1
f 30/6/1 11/7/1 8/8/1 42/9/1
f 17/5/1 12/5/1 14/10/1 6/10/1
f 3/11/1 18/11/1 15/12/1 5/13/1
f 42/9/1 8/8/1 7/4/1 44/14/1
f 2/2/1 19/2/1 20/15/1 1/15/1
f 5/13/1 15/12/1 13/6/1 9/16/1
f 6/10/1 14/10/1 16/2/1 4/1/1
f 9/16/1 13/6/1 11/7/1 30/7/1
f 44/14/1 7/9/1 10/8/1 36/4/1
f 10/17/1 7/18/1 8/19/1 11/20/1 13/21/1 15/22/1 18/23/1 20/24/1 19/25/1 16/26/1 14/27/1 12/28/1
f 1/15/1 20/15/1 18/11/1 3/11/1
f 46/29/2 43/30/2 25/31/2 23/32/2
f 41/33/2 45/34/2 24/35/2 26/36/2
f 39/37/2 41/33/2 26/36/2 28/38/2
f 43/30/2 40/39/2 27/40/2 25/31/2
f 48/41/2 46/29/2 23/32/2 21/42/2
f 38/43/2 35/44/2 32/45/2 29/46/2
f 35/44/2 34/47/2 33/48/2 32/45/2
f 34/47/2 37/49/2 31/50/2 33/48/2
f 47/51/2 48/41/2 21/42/2 22/52/2
f 45/34/2 47/51/2 22/52/2 24/35/2
f 40/39/2 38/43/2 29/46/2 27/40/2
f 33/53/2 31/54/2 28/55/2 26/56/2 24/57/2 22/58/2 21/59/2 23/60/2 25/61/2 27/62/2 29/63/2 32/64/2
f 37/49/2 39/37/2 28/38/2 31/50/2
f 2/65/3 47/66/3 45/67/3 4/68/3
f 17/65/4 39/66/4 37/67/4 36/68/4
f 30/68/5 42/65/5 35/66/5 38/67/5
f 6/65/6 41/66/6 39/67/6 17/68/6
f 3/68/7 5/65/7 43/66/7 46/67/7
f 42/68/8 44/65/8 34/66/8 35/67/8
f 1/65/9 48/66/9 47/67/9 2/68/9
f 5/68/10 9/65/10 40/66/10 43/67/10
f 4/65/11 45/66/11 41/67/11 6/68/11
f 9/68/12 30/65/12 38/66/12 40/67/12
f 36/65/13 37/66/13 34/67/13 44/68/13
f 1/68/14 3/65/14 46/66/14 48/67/14
